<?xml version="1.0" encoding="UTF-8" standalone="no"?>
<!DOCTYPE svg PUBLIC "-//W3C//DTD SVG 1.1//EN" "http://www.w3.org/Graphics/SVG/1.1/DTD/svg11.dtd">
<!-- Ustvarjeno z Microsoft Visiom, SVG Export PrimeriUporabe4DN.svg Page-1 -->
<svg xmlns="http://www.w3.org/2000/svg" xmlns:xlink="http://www.w3.org/1999/xlink" xmlns:ev="http://www.w3.org/2001/xml-events"
		xmlns:v="http://schemas.microsoft.com/visio/2003/SVGExtensions/" width="11.7311in" height="6.99237in"
		viewBox="0 0 844.642 503.451" xml:space="preserve" color-interpolation-filters="sRGB" class="st12">
	<v:documentProperties v:langID="1060" v:metric="true" v:viewMarkup="false">
		<v:userDefs>
			<v:ud v:nameU="msvNoAutoConnect" v:prompt="" v:val="VT0(0):26"/>
		</v:userDefs>
	</v:documentProperties>

	<style type="text/css">
	<![CDATA[
		.st1 {fill:#ffffff;stroke:#a5a5a5;stroke-linecap:round;stroke-linejoin:round;stroke-width:2}
		.st2 {fill:#5c5c5c;font-family:Calibri;font-size:1.00001em}
		.st3 {fill:#ffffff;stroke:#fdbf01;stroke-linecap:round;stroke-linejoin:round;stroke-width:2}
		.st4 {fill:#8d6a01;font-family:Calibri;font-size:1.00001em}
		.st5 {stroke:#a5a5a5;stroke-linecap:round;stroke-linejoin:round;stroke-width:1}
		.st6 {font-size:1em}
		.st7 {fill:#ffffff;stroke:none;stroke-linecap:butt;stroke-width:7.2}
		.st8 {fill:#5c5c5c;font-family:Calibri;font-size:0.666664em}
		.st9 {marker-end:url(#mrkr1-41);stroke:#a5a5a5;stroke-dasharray:7,5;stroke-linecap:round;stroke-linejoin:round;stroke-width:1}
		.st10 {fill:#a5a5a5;fill-opacity:1;stroke:#a5a5a5;stroke-opacity:1;stroke-width:0.28409090909091}
		.st11 {fill:#ffffff;stroke:none;stroke-linecap:butt}
		.st12 {fill:none;fill-rule:evenodd;font-size:12px;overflow:visible;stroke-linecap:square;stroke-miterlimit:3}
	]]>
	</style>

	<defs id="Markers">
		<g id="lend1">
			<path d="M 1 -1 L 0 0 L 1 1 " style="stroke-linecap:round;stroke-linejoin:round;fill:none"/>
		</g>
		<marker id="mrkr1-41" class="st10" v:arrowType="1" v:arrowSize="2" orient="auto" markerUnits="strokeWidth"
				overflow="visible">
			<use xlink:href="#lend1" transform="scale(-3.52,-3.52) "/>
		</marker>
	</defs>
	<g v:mID="11" v:index="1" v:groupContext="foregroundPage">
		<v:userDefs>
			<v:ud v:nameU="msvThemeOrder" v:val="VT0(0):26"/>
		</v:userDefs>
		<title>Stran-1</title>
		<v:pageProperties v:drawingScale="0.0393701" v:pageScale="0.0393701" v:drawingUnits="24" v:shadowOffsetX="8.50394"
				v:shadowOffsetY="-8.50394"/>
		<v:layer v:name="Povezovalnik" v:index="0"/>
		<v:layer v:name="Vsebnik" v:index="1"/>
		<g id="shape19-1" v:mID="19" v:groupContext="shape" transform="translate(228.523,-183.27)">
			<title>Primer uporabe</title>
			<desc>NAČIN PRIJAVE</desc>
			<v:userDefs>
				<v:ud v:nameU="visVersion" v:prompt="" v:val="VT0(15):26"/>
			</v:userDefs>
			<v:textBlock v:margins="rect(4,4,4,4)" v:tabSpace="42.5197"/>
			<v:textRect cx="56.6929" cy="486.443" width="113.39" height="34.0157"/>
			<ellipse cx="56.6929" cy="486.443" rx="56.6929" ry="17.0079" class="st1"/>
			<text x="19.82" y="490.04" class="st2" v:langID="1060"><v:paragraph v:horizAlign="1"/><v:tabList/>NAČIN PRIJAVE</text>		</g>
		<g id="shape20-4" v:mID="20" v:groupContext="shape" transform="translate(268.209,-330.955)">
			<title>Dejavnik</title>
			<desc>CIVILIST</desc>
			<v:userDefs>
				<v:ud v:nameU="visVersion" v:prompt="" v:val="VT0(15):26"/>
			</v:userDefs>
			<v:textBlock v:margins="rect(4,4,4,4)" v:tabSpace="42.5197"/>
			<v:textRect cx="17.0079" cy="514.653" width="49.41" height="22.4037"/>
			<path d="M6.8 503.45 L6.8 468.02 L6.8 482.19 L0 482.19 L0 453.84 L3.4 450.3 L30.61 450.3 L34.02 453.84 L34.02 482.19
						 L27.21 482.19 L27.21 468.02 L27.21 503.45 L17.01 503.45 L17.01 475.1 L17.01 503.45 L6.8 503.45 ZM24.09 439.67
						 A7.08661 7.08661 -180 1 0 9.92 439.67 A7.08661 7.08661 -180 1 0 24.09 439.67 Z" class="st3"/>
			<text x="-2.33" y="518.25" class="st4" v:langID="1060"><v:paragraph v:horizAlign="1"/><v:tabList/>CIVILIST</text>		</g>
		<g id="shape21-7" v:mID="21" v:groupContext="shape" transform="translate(268.209,-40.4037)">
			<title>Dejavnik.21</title>
			<desc>ZDRAVNIK</desc>
			<v:userDefs>
				<v:ud v:nameU="visVersion" v:prompt="" v:val="VT0(15):26"/>
			</v:userDefs>
			<v:textBlock v:margins="rect(4,4,4,4)" v:tabSpace="42.5197"/>
			<v:textRect cx="17.0079" cy="514.653" width="61" height="22.4037"/>
			<path d="M6.8 503.45 L6.8 468.02 L6.8 482.19 L0 482.19 L0 453.84 L3.4 450.3 L30.61 450.3 L34.02 453.84 L34.02 482.19
						 L27.21 482.19 L27.21 468.02 L27.21 503.45 L17.01 503.45 L17.01 475.1 L17.01 503.45 L6.8 503.45 ZM24.09 439.67
						 A7.08661 7.08661 -180 1 0 9.92 439.67 A7.08661 7.08661 -180 1 0 24.09 439.67 Z" class="st3"/>
			<text x="-8.13" y="518.25" class="st4" v:langID="1060"><v:paragraph v:horizAlign="1"/><v:tabList/>ZDRAVNIK</text>		</g>
		<g id="shape27-10" v:mID="27" v:groupContext="shape" v:layerMember="0" transform="translate(278.13,-330.955)">
			<title>Dinamični povezovalnik</title>
			<v:userDefs>
				<v:ud v:nameU="visVersion" v:prompt="" v:val="VT0(15):26"/>
			</v:userDefs>
			<path d="M7.09 503.45 L7.09 617.12" class="st5"/>
		</g>
		<g id="shape28-13" v:mID="28" v:groupContext="shape" v:layerMember="0" transform="translate(278.13,-183.27)">
			<title>Dinamični povezovalnik.28</title>
			<v:userDefs>
				<v:ud v:nameU="visVersion" v:prompt="" v:val="VT0(15):26"/>
			</v:userDefs>
			<path d="M7.09 503.45 L7.09 575.45" class="st5"/>
		</g>
		<g id="shape29-16" v:mID="29" v:groupContext="shape" transform="translate(423.122,-330.955)">
			<title>Primer uporabe.29</title>
			<desc>VPIS CIVILISTOVIH PODATKOV</desc>
			<v:userDefs>
				<v:ud v:nameU="visVersion" v:prompt="" v:val="VT0(15):26"/>
			</v:userDefs>
			<v:textBlock v:margins="rect(4,4,4,4)" v:tabSpace="42.5197"/>
			<v:textRect cx="50.6693" cy="468.018" width="101.34" height="70.8661"/>
			<ellipse cx="50.6693" cy="468.018" rx="50.6693" ry="35.4331" class="st1"/>
			<text x="6.57" y="464.42" class="st2" v:langID="1060"><v:paragraph v:horizAlign="1"/><v:tabList/>VPIS CIVILISTOVIH <v:newlineChar/><tspan
						x="23.02" dy="1.2em" class="st6">PODATKOV</tspan></text>		</g>
		<g id="shape30-20" v:mID="30" v:groupContext="shape" v:layerMember="0" transform="translate(302.224,-359.301)">
			<title>Dinamični povezovalnik.30</title>
			<v:userDefs>
				<v:ud v:nameU="visVersion" v:prompt="" v:val="VT0(15):26"/>
			</v:userDefs>
			<path d="M0 496.36 L120.9 496.36" class="st5"/>
		</g>
		<g id="shape31-23" v:mID="31" v:groupContext="shape" transform="translate(672.571,-330.955)">
			<title>Dejavnik.31</title>
			<desc>EHRScape API</desc>
			<v:userDefs>
				<v:ud v:nameU="visVersion" v:prompt="" v:val="VT0(15):26"/>
			</v:userDefs>
			<v:textBlock v:margins="rect(4,4,4,4)" v:tabSpace="42.5197"/>
			<v:textRect cx="17.0079" cy="521.853" width="59.18" height="36.8038"/>
			<path d="M6.8 503.45 L6.8 468.02 L6.8 482.19 L0 482.19 L0 453.84 L3.4 450.3 L30.61 450.3 L34.02 453.84 L34.02 482.19
						 L27.21 482.19 L27.21 468.02 L27.21 503.45 L17.01 503.45 L17.01 475.1 L17.01 503.45 L6.8 503.45 ZM24.09 439.67
						 A7.08661 7.08661 -180 1 0 9.92 439.67 A7.08661 7.08661 -180 1 0 24.09 439.67 Z" class="st3"/>
			<text x="-7.22" y="518.25" class="st4" v:langID="1060"><v:paragraph v:horizAlign="1"/><v:tabList/>EHRScape<v:newlineChar/><tspan
						x="8.92" dy="1.2em" class="st6">API</tspan></text>		</g>
		<g id="shape32-27" v:mID="32" v:groupContext="shape" v:layerMember="0" transform="translate(672.571,-359.301)">
			<title>Dinamični povezovalnik.32</title>
			<desc>Kreiranje EHRid-ja</desc>
			<v:userDefs>
				<v:ud v:nameU="visVersion" v:prompt="" v:val="VT0(15):26"/>
			</v:userDefs>
			<v:textBlock v:margins="rect(4,4,4,4)" v:tabSpace="42.5197"/>
			<v:textRect cx="-74.0551" cy="496.364" width="68.57" height="17.6036"/>
			<path d="M0 496.36 L-148.11 496.36" class="st5"/>
			<rect v:rectContext="textBkgnd" x="-103.434" y="491.565" width="58.7571" height="9.59985" class="st7"/>
			<text x="-103.43" y="498.76" class="st8" v:langID="1060"><v:paragraph v:horizAlign="1"/><v:tabList/>Kreiranje EHRid-ja</text>		</g>
		<g id="shape39-32" v:mID="39" v:groupContext="shape" transform="translate(334.727,-235.546)">
			<title>Primer uporabe.39</title>
			<desc>PRIKAZ RAZOČARANEGA ZDRAVNIKA (ob slabem BMI)</desc>
			<v:userDefs>
				<v:ud v:nameU="visVersion" v:prompt="" v:val="VT0(15):26"/>
			</v:userDefs>
			<v:textBlock v:margins="rect(4,4,4,4)" v:tabSpace="42.5197"/>
			<v:textRect cx="102.568" cy="468.018" width="205.14" height="70.8661"/>
			<ellipse cx="102.568" cy="468.018" rx="102.568" ry="35.4331" class="st1"/>
			<text x="13.01" y="464.42" class="st2" v:langID="1060"><v:paragraph v:horizAlign="1"/><v:tabList/>PRIKAZ RAZOČARANEGA ZDRAVNIKA<v:newlineChar/><tspan
						x="62.47" dy="1.2em" class="st6">(</tspan>ob slabem BMI)</text>		</g>
		<g id="shape41-36" v:mID="41" v:groupContext="shape" v:layerMember="0" transform="translate(462.802,-332.158)">
			<title>Razširi</title>
			<desc>&#60;&#60;razširi&#62;&#62;</desc>
			<v:userDefs>
				<v:ud v:nameU="visVersion" v:prompt="" v:val="VT0(15):26"/>
			</v:userDefs>
			<v:textBlock v:margins="rect(4,4,4,4)" v:tabSpace="42.5197"/>
			<v:textRect cx="-7.08661" cy="516.477" width="45.13" height="17.6036"/>
			<path d="M-2.1 503.45 L-12.07 529.5" class="st9"/>
			<rect v:rectContext="textBkgnd" x="-24.741" y="511.677" width="35.309" height="9.59985" class="st7"/>
			<text x="-24.74" y="518.88" class="st8" v:langID="1060"><v:paragraph v:horizAlign="1"/><v:tabList/>&#60;&#60;razširi&#62;&#62;</text>		</g>
		<g id="shape42-44" v:mID="42" v:groupContext="shape" transform="translate(352.256,-97.0966)">
			<title>Primer uporabe.42</title>
			<desc>IZBIRA PACIENTA</desc>
			<v:userDefs>
				<v:ud v:nameU="visVersion" v:prompt="" v:val="VT0(15):26"/>
			</v:userDefs>
			<v:textBlock v:margins="rect(4,4,4,4)" v:tabSpace="42.5197"/>
			<v:textRect cx="56.6929" cy="486.443" width="113.39" height="34.0157"/>
			<ellipse cx="56.6929" cy="486.443" rx="56.6929" ry="17.0079" class="st1"/>
			<text x="15.03" y="490.04" class="st2" v:langID="1060"><v:paragraph v:horizAlign="1"/><v:tabList/>IZBIRA PACIENTA</text>		</g>
		<g id="shape43-47" v:mID="43" v:groupContext="shape" transform="translate(352.256,-26.2305)">
			<title>Primer uporabe.43</title>
			<desc>GENERACIJA PACIENTA</desc>
			<v:userDefs>
				<v:ud v:nameU="visVersion" v:prompt="" v:val="VT0(15):26"/>
			</v:userDefs>
			<v:textBlock v:margins="rect(4,4,4,4)" v:tabSpace="42.5197"/>
			<v:textRect cx="61.538" cy="486.443" width="123.08" height="34.0157"/>
			<ellipse cx="61.538" cy="486.443" rx="61.538" ry="17.0079" class="st1"/>
			<text x="5.36" y="490.04" class="st2" v:langID="1060"><v:paragraph v:horizAlign="1"/><v:tabList/>GENERACIJA PACIENTA</text>		</g>
		<g id="shape44-50" v:mID="44" v:groupContext="shape" v:layerMember="0" transform="translate(302.224,-81.0969)">
			<title>Dinamični povezovalnik.44</title>
			<v:userDefs>
				<v:ud v:nameU="visVersion" v:prompt="" v:val="VT0(15):26"/>
			</v:userDefs>
			<path d="M0 503.45 L67.25 482.65" class="st5"/>
		</g>
		<g id="shape45-53" v:mID="45" v:groupContext="shape" v:layerMember="0" transform="translate(368.446,-54.7355)">
			<title>Dinamični povezovalnik.45</title>
			<v:userDefs>
				<v:ud v:nameU="visVersion" v:prompt="" v:val="VT0(15):26"/>
			</v:userDefs>
			<path d="M0 503.45 L-66.22 486.66" class="st5"/>
		</g>
		<g id="shape46-56" v:mID="46" v:groupContext="shape" transform="translate(511.557,-129.695)">
			<title>Primer uporabe.46</title>
			<desc>VNAŠANJE MERITVE VITALNIH ZNAKOV BOLNIKA</desc>
			<v:userDefs>
				<v:ud v:nameU="visVersion" v:prompt="" v:val="VT0(15):26"/>
			</v:userDefs>
			<v:textBlock v:margins="rect(4,4,4,4)" v:tabSpace="42.5197"/>
			<v:textRect cx="83.3415" cy="468.018" width="166.69" height="70.8661"/>
			<ellipse cx="83.3415" cy="468.018" rx="83.3415" ry="35.4331" class="st1"/>
			<text x="9.89" y="464.42" class="st2" v:langID="1060"><v:paragraph v:horizAlign="1"/><v:tabList/>VNAŠANJE MERITVE VITALNIH<v:newlineChar/><tspan
						x="39.6" dy="1.2em" class="st6">ZNAKOV BOLNIKA</tspan></text>		</g>
		<g id="shape63-60" v:mID="63" v:groupContext="shape" transform="translate(607.374,-26.2305)">
			<title>Primer uporabe.63</title>
			<desc>PREGLED MERITEV VITALNIH ZNAKOV BOLNIKA</desc>
			<v:userDefs>
				<v:ud v:nameU="visVersion" v:prompt="" v:val="VT0(15):26"/>
			</v:userDefs>
			<v:textBlock v:margins="rect(4,4,4,4)" v:tabSpace="42.5197"/>
			<v:textRect cx="83.3415" cy="474.407" width="166.69" height="58.0869"/>
			<ellipse cx="83.3415" cy="474.407" rx="83.3415" ry="29.0435" class="st1"/>
			<text x="13.37" y="470.81" class="st2" v:langID="1060"><v:paragraph v:horizAlign="1"/><v:tabList/>PREGLED MERITEV VITALNIH<v:newlineChar/><tspan
						x="39.6" dy="1.2em" class="st6">ZNAKOV BOLNIKA</tspan></text>		</g>
		<g id="shape64-64" v:mID="64" v:groupContext="shape" v:layerMember="0" transform="translate(450.782,-125.583)">
			<title>Dinamični povezovalnik.64</title>
			<v:userDefs>
				<v:ud v:nameU="visVersion" v:prompt="" v:val="VT0(15):26"/>
			</v:userDefs>
			<path d="M0 503.45 L74.09 483.12" class="st5"/>
		</g>
		<g id="shape65-67" v:mID="65" v:groupContext="shape" v:layerMember="0" transform="translate(455.481,-104.389)">
			<title>Dinamični povezovalnik.65</title>
			<v:userDefs>
				<v:ud v:nameU="visVersion" v:prompt="" v:val="VT0(15):26"/>
			</v:userDefs>
			<path d="M0 503.45 L35.22 510.8 A2.3622 2.3622 0 0 1 39.84 511.77 L163.74 537.64" class="st5"/>
		</g>
		<g id="shape66-70" v:mID="66" v:groupContext="shape" v:layerMember="0" transform="translate(437.17,-58.9713)">
			<title>Dinamični povezovalnik.66</title>
			<v:userDefs>
				<v:ud v:nameU="visVersion" v:prompt="" v:val="VT0(15):26"/>
			</v:userDefs>
			<path d="M0 503.45 L113.22 427.25" class="st5"/>
		</g>
		<g id="shape67-73" v:mID="67" v:groupContext="shape" v:layerMember="0" transform="translate(474.585,-41.6934)">
			<title>Dinamični povezovalnik.67</title>
			<v:userDefs>
				<v:ud v:nameU="visVersion" v:prompt="" v:val="VT0(15):26"/>
			</v:userDefs>
			<path d="M0 499.26 L133.43 493.46" class="st5"/>
		</g>
		<g id="shape68-76" v:mID="68" v:groupContext="shape" v:layerMember="0" transform="translate(673.813,-352.215)">
			<title>Dinamični povezovalnik.68</title>
			<desc>Vnost pacienta med izbirami</desc>
			<v:userDefs>
				<v:ud v:nameU="visVersion" v:prompt="" v:val="VT0(15):26"/>
			</v:userDefs>
			<v:textBlock v:margins="rect(4,4,4,4)" v:tabSpace="42.5197"/>
			<v:textRect cx="-151.478" cy="636.679" width="102.42" height="17.6036"/>
			<path d="M0 503.45 L-246.92 725.43" class="st5"/>
			<rect v:rectContext="textBkgnd" x="-197.778" y="631.88" width="92.6002" height="9.59985" class="st7"/>
			<text x="-197.78" y="639.08" class="st8" v:langID="1060"><v:paragraph v:horizAlign="1"/><v:tabList/>Vnost pacienta med izbirami</text>		</g>
		<g id="shape69-81" v:mID="69" v:groupContext="shape" v:layerMember="0" transform="translate(611.244,-199.873)">
			<title>Dinamični povezovalnik.69</title>
			<v:userDefs>
				<v:ud v:nameU="visVersion" v:prompt="" v:val="VT0(15):26"/>
			</v:userDefs>
			<path d="M0 503.45 L68.13 358.63" class="st5"/>
		</g>
		<g id="shape70-84" v:mID="70" v:groupContext="shape" v:layerMember="0" transform="translate(697.245,-84.3174)">
			<title>Dinamični povezovalnik.70</title>
			<v:userDefs>
				<v:ud v:nameU="visVersion" v:prompt="" v:val="VT0(15):26"/>
			</v:userDefs>
			<path d="M-6.64 503.45 L-7.54 256.81" class="st5"/>
		</g>
		<g id="shape71-87" v:mID="71" v:groupContext="shape" transform="translate(700.917,-129.695)">
			<title>Primer uporabe.71</title>
			<desc>PREGLED MERITEV S POMOČJO TABELE</desc>
			<v:userDefs>
				<v:ud v:nameU="visVersion" v:prompt="" v:val="VT0(15):26"/>
			</v:userDefs>
			<v:textBlock v:margins="rect(4,4,4,4)" v:tabSpace="42.5197"/>
			<v:textRect cx="62.3622" cy="474.407" width="124.73" height="58.0869"/>
			<ellipse cx="62.3622" cy="474.407" rx="62.3622" ry="29.0435" class="st1"/>
			<text x="12.59" y="470.81" class="st2" v:langID="1060"><v:paragraph v:horizAlign="1"/><v:tabList/>PREGLED MERITEV S <v:newlineChar/><tspan
						x="17.71" dy="1.2em" class="st6">POMOČJO TABELE</tspan></text>		</g>
		<g id="shape72-91" v:mID="72" v:groupContext="shape" v:layerMember="0" transform="translate(710.502,-83.487)">
			<title>Razširi.72</title>
			<desc>&#60;&#60;razširi&#62;&#62;</desc>
			<v:userDefs>
				<v:ud v:nameU="visVersion" v:prompt="" v:val="VT0(15):26"/>
			</v:userDefs>
			<v:textBlock v:margins="rect(4,4,4,4)" v:tabSpace="42.5197"/>
			<v:textRect cx="16.7072" cy="479.629" width="45.13" height="17.6036"/>
			<path d="M0 503.45 L33.41 455.81" class="st9"/>
			<rect v:rectContext="textBkgnd" x="-0.947195" y="474.829" width="35.309" height="9.59985" class="st7"/>
			<text x="-0.95" y="482.03" class="st8" v:langID="1060"><v:paragraph v:horizAlign="1"/><v:tabList/>&#60;&#60;razširi&#62;&#62;</text>		</g>
		<g id="shape73-98" v:mID="73" v:groupContext="shape" transform="translate(417.098,-426.364)">
			<title>Primer uporabe.73</title>
			<desc>Facebook Like Windowseve strani</desc>
			<v:userDefs>
				<v:ud v:nameU="visVersion" v:prompt="" v:val="VT0(15):26"/>
			</v:userDefs>
			<v:textBlock v:margins="rect(4,4,4,4)" v:tabSpace="42.5197"/>
			<v:textRect cx="56.6929" cy="474.407" width="113.39" height="58.0869"/>
			<ellipse cx="56.6929" cy="474.407" rx="56.6929" ry="29.0435" class="st1"/>
			<text x="22.36" y="470.81" class="st2" v:langID="1060"><v:paragraph v:horizAlign="1"/><v:tabList/>Facebook Like<v:newlineChar/><tspan
						x="9.98" dy="1.2em" class="st6">Windowseve strani</tspan></text>		</g>
		<g id="shape74-102" v:mID="74" v:groupContext="shape" v:layerMember="0" transform="translate(466.705,-401.821)">
			<title>Razširi.74</title>
			<desc>&#60;&#60;razširi&#62;&#62;</desc>
			<v:userDefs>
				<v:ud v:nameU="visVersion" v:prompt="" v:val="VT0(15):26"/>
			</v:userDefs>
			<v:textBlock v:margins="rect(4,4,4,4)" v:tabSpace="42.5197"/>
			<v:textRect cx="7.08661" cy="491.179" width="45.13" height="17.6036"/>
			<path d="M7.09 503.45 L7.09 478.91" class="st9"/>
			<rect v:rectContext="textBkgnd" x="-10.5678" y="486.38" width="35.309" height="9.59985" class="st11"/>
			<text x="-10.57" y="493.58" class="st8" v:langID="1060"><v:paragraph v:horizAlign="1"/><v:tabList/>&#60;&#60;razširi&#62;&#62;</text>		</g>
		<g id="shape75-109" v:mID="75" v:groupContext="shape" transform="translate(88.6337,-272.396)">
			<title>Primer uporabe.75</title>
			<desc>OGLED NAČRTA</desc>
			<v:userDefs>
				<v:ud v:nameU="visVersion" v:prompt="" v:val="VT0(15):26"/>
			</v:userDefs>
			<v:textBlock v:margins="rect(4,4,4,4)" v:tabSpace="42.5197"/>
			<v:textRect cx="56.6929" cy="486.443" width="113.39" height="34.0157"/>
			<ellipse cx="56.6929" cy="486.443" rx="56.6929" ry="17.0079" class="st1"/>
			<text x="18.24" y="490.04" class="st2" v:langID="1060"><v:paragraph v:horizAlign="1"/><v:tabList/>OGLED NAČRTA</text>		</g>
		<g id="shape76-112" v:mID="76" v:groupContext="shape" transform="translate(35.7676,-183.27)">
			<title>Dejavnik.76</title>
			<desc>UPORABNIK</desc>
			<v:userDefs>
				<v:ud v:nameU="visVersion" v:prompt="" v:val="VT0(15):26"/>
			</v:userDefs>
			<v:textBlock v:margins="rect(4,4,4,4)" v:tabSpace="42.5197"/>
			<v:textRect cx="17.0079" cy="514.653" width="69.56" height="22.4037"/>
			<path d="M6.8 503.45 L6.8 468.02 L6.8 482.19 L0 482.19 L0 453.84 L3.4 450.3 L30.61 450.3 L34.02 453.84 L34.02 482.19
						 L27.21 482.19 L27.21 468.02 L27.21 503.45 L17.01 503.45 L17.01 475.1 L17.01 503.45 L6.8 503.45 ZM24.09 439.67
						 A7.08661 7.08661 -180 1 0 9.92 439.67 A7.08661 7.08661 -180 1 0 24.09 439.67 Z" class="st3"/>
			<text x="-12.41" y="518.25" class="st4" v:langID="1060"><v:paragraph v:horizAlign="1"/><v:tabList/>UPORABNIK</text>		</g>
		<g id="shape77-115" v:mID="77" v:groupContext="shape" v:layerMember="0" transform="translate(230.405,-203.902)">
			<title>Dinamični povezovalnik.77</title>
			<desc>PRIJAVA</desc>
			<v:userDefs>
				<v:ud v:nameU="visVersion" v:prompt="" v:val="VT0(15):26"/>
			</v:userDefs>
			<v:textBlock v:margins="rect(4,4,4,4)" v:tabSpace="42.5197"/>
			<v:textRect cx="-80.3106" cy="496.364" width="40" height="17.6036"/>
			<path d="M0 502.73 L-160.62 490" class="st5"/>
			<rect v:rectContext="textBkgnd" x="-93.7304" y="491.565" width="26.8396" height="9.59985" class="st7"/>
			<text x="-93.73" y="498.76" class="st8" v:langID="1060"><v:paragraph v:horizAlign="1"/><v:tabList/>PRIJAVA</text>		</g>
		<g id="shape78-120" v:mID="78" v:groupContext="shape" v:layerMember="0" transform="translate(124.603,-273.573)">
			<title>Dinamični povezovalnik.78</title>
			<v:userDefs>
				<v:ud v:nameU="visVersion" v:prompt="" v:val="VT0(15):26"/>
			</v:userDefs>
			<path d="M0 503.45 L-54.82 545.33" class="st5"/>
		</g>
		<g id="shape81-123" v:mID="81" v:groupContext="shape" transform="translate(92.4605,-130.994)">
			<title>Primer uporabe.81</title>
			<desc>OGLED OPISA</desc>
			<v:userDefs>
				<v:ud v:nameU="visVersion" v:prompt="" v:val="VT0(15):26"/>
			</v:userDefs>
			<v:textBlock v:margins="rect(4,4,4,4)" v:tabSpace="42.5197"/>
			<v:textRect cx="56.6929" cy="486.443" width="113.39" height="34.0157"/>
			<ellipse cx="56.6929" cy="486.443" rx="56.6929" ry="17.0079" class="st1"/>
			<text x="23.62" y="490.04" class="st2" v:langID="1060"><v:paragraph v:horizAlign="1"/><v:tabList/>OGLED OPISA</text>		</g>
		<g id="shape82-126" v:mID="82" v:groupContext="shape" v:layerMember="0" transform="translate(127.694,-163.744)">
			<title>Dinamični povezovalnik.82</title>
			<v:userDefs>
				<v:ud v:nameU="visVersion" v:prompt="" v:val="VT0(15):26"/>
			</v:userDefs>
			<path d="M0 503.45 L-57.91 460.97" class="st5"/>
		</g>
	</g>
</svg>
